<svg width="40" height="40" viewBox="0 0 40 40" fill="none" xmlns="http://www.w3.org/2000/svg">
<rect width="40" height="40" rx="5" fill="#FE5722"/>
<path d="M9 9L11.069 29.6392L20.4984 32L29.8903 29.6392L32 9H9ZM27.652 13.8958L27.5016 15.2006L27.4483 15.7397H16.4326L16.6897 18.3438H27.1944L27.0909 19.0155L26.4263 25.7109L26.373 26.1588L20.511 27.5852V27.5935H20.4734L20.4639 27.5963V27.5935H20.4608L14.5486 26.156L14.1912 22.1587H17.047L17.2508 24.1822L20.4608 24.948H20.4734L23.6708 24.185L24.0282 20.9064H20.4639V20.9036H14.0408L13.326 13.8958L13.2727 13.224H27.7022L27.652 13.8958Z" fill="white"/>
</svg>
