<svg width="40" height="40" viewBox="0 0 40 40" fill="none" xmlns="http://www.w3.org/2000/svg">
<rect width="40" height="40" rx="5" fill="#21609B"/>
<path d="M10.4322 14.0181C8.43583 16.9493 8.68367 20.7636 10.2094 23.8784L10.3208 24.0992C10.3447 24.1457 10.3674 24.1944 10.3924 24.2398C10.4061 24.2676 10.422 24.2944 10.4368 24.3199C10.5085 24.4551 10.5836 24.5883 10.6619 24.7196L10.7449 24.859C10.8222 24.9885 10.9021 25.1164 10.9848 25.2424C11.0662 25.3676 11.15 25.4911 11.236 25.613L11.277 25.67C11.3486 25.7722 11.4236 25.8733 11.4998 25.9732L11.5839 26.0824L11.7908 26.3415L11.8693 26.4368C11.9625 26.5495 12.0591 26.6622 12.1558 26.7725L12.1615 26.7783C12.166 26.783 12.1694 26.7853 12.1728 26.7911C12.2672 26.8968 12.3661 27.0014 12.4639 27.106L12.5582 27.2024L12.7913 27.4359L12.8868 27.5289C12.9914 27.6299 13.0983 27.7287 13.2063 27.8263L13.2108 27.8309L13.2665 27.8786C13.3609 27.9634 13.4587 28.047 13.5565 28.1284L13.6758 28.226C13.8847 28.3971 14.099 28.5614 14.3182 28.7186C14.3511 28.743 14.383 28.7674 14.4171 28.7906L14.4444 28.8104C14.5308 28.8719 14.6195 28.93 14.707 28.9881C14.7445 29.0137 14.782 29.0404 14.8218 29.066C15.1484 29.2789 15.4846 29.4763 15.8291 29.6573C15.903 29.6968 15.9758 29.7363 16.0508 29.7747L16.102 29.8002L16.1929 29.8455C16.3089 29.9013 16.426 29.9582 16.5431 30.0117L16.6181 30.0454C16.7534 30.1058 16.8899 30.1639 17.0274 30.2185L17.1275 30.2591C17.2714 30.3163 17.4162 30.3713 17.5618 30.4241C17.7039 30.4752 17.8483 30.5229 17.9938 30.5682L18.0984 30.6007C18.2439 30.646 18.3894 30.6995 18.5418 30.7285C28.1964 32.527 31 24.8009 31 24.8009C28.6443 27.9355 24.4651 28.7627 20.5041 27.8426C20.354 27.8077 20.2074 27.7601 20.0607 27.7159L19.9504 27.6822C19.6607 27.5907 19.3744 27.4884 19.092 27.3755L18.9863 27.3337C18.8499 27.2791 18.7146 27.221 18.5816 27.1617L18.5009 27.1257C18.3861 27.0731 18.272 27.0189 18.1586 26.9631L18.0597 26.9143C17.9711 26.8701 17.8835 26.8225 17.796 26.7772C17.738 26.7458 17.6777 26.7156 17.6198 26.6819C17.5133 26.6236 17.4079 26.5631 17.3037 26.5007L17.1968 26.4402C17.0577 26.3565 16.9201 26.2701 16.7841 26.1812L16.6727 26.1056C16.5736 26.0405 16.4754 25.9739 16.3783 25.9058L16.2839 25.8373C16.1907 25.7699 16.0974 25.7025 16.0065 25.6328C15.8805 25.5362 15.7562 25.4375 15.6336 25.3365L15.521 25.2447C15.4164 25.1564 15.3118 25.0681 15.2095 24.9764C15.0867 24.867 14.9658 24.7555 14.8468 24.6417C14.815 24.6115 14.7843 24.5825 14.7548 24.5511C14.6745 24.474 14.5957 24.3954 14.5183 24.3153L14.4262 24.2212C14.3282 24.1187 14.2319 24.0145 14.1374 23.9086L14.1238 23.8947C14.0242 23.7829 13.9264 23.6694 13.8304 23.5543L13.7543 23.4602C13.6557 23.3409 13.5594 23.2197 13.4655 23.0965C13.3824 22.987 13.3009 22.8763 13.2211 22.7642C11.0223 19.6994 10.2333 15.4715 11.9898 12" fill="white"/>
<path d="M16.0838 12.4607C14.64 14.2836 14.7195 16.7241 15.8451 18.6517C16.0338 18.975 16.2464 19.2893 16.4829 19.5876C16.7 19.86 16.9388 20.1832 17.2264 20.4018C17.331 20.5025 17.439 20.6003 17.5493 20.6961L17.6357 20.7699C17.7426 20.8617 17.8517 20.9515 17.9665 21.0403L17.979 21.0503L17.9825 21.0523C18.1087 21.1491 18.2371 21.2419 18.369 21.3327L18.4577 21.3925C18.5936 21.485 18.7323 21.5741 18.8738 21.6599C18.934 21.6968 18.9966 21.7318 19.0568 21.7667C19.0864 21.7836 19.1148 21.8016 19.1455 21.8176C19.2578 21.8812 19.3719 21.9424 19.4877 22.0011C19.5741 22.045 19.6639 22.0879 19.7526 22.1308C19.7822 22.1458 19.8151 22.1598 19.8458 22.1738C19.9084 22.2017 19.9686 22.2306 20.0312 22.2566C20.1681 22.316 20.3065 22.3729 20.4461 22.4272L20.5303 22.4581C20.636 22.497 20.7417 22.5349 20.8497 22.5709L20.9827 22.6148C21.0805 22.6467 21.1772 22.6746 21.2738 22.7036L21.4068 22.7405C21.5444 22.7784 21.6831 22.8253 21.8275 22.8472C29.281 23.9308 31 18.8952 31 18.8952C29.4493 20.8547 26.4456 21.7906 23.2406 21.0603C22.9549 20.9954 22.673 20.9181 22.3959 20.8288L22.2618 20.7859C22.1266 20.7406 21.9928 20.6924 21.8604 20.6412C21.7288 20.5908 21.5984 20.5379 21.4693 20.4826C21.4045 20.4546 21.3409 20.4247 21.2761 20.3958L21.1635 20.3449C20.9577 20.2467 20.7556 20.1425 20.5575 20.0326L20.4666 19.9797C20.2306 19.8448 20.0022 19.7 19.7822 19.5457C18.3792 18.5739 17.2662 17.2449 16.7375 15.7393C16.1827 14.1768 16.3032 12.4238 17.2628 11" fill="white"/>
<path d="M22.6644 9.92631C21.8845 11.2469 21.8075 12.885 22.3479 14.3434C22.9184 15.8916 24.0877 17.1043 25.4516 17.6807C25.5319 17.7153 25.6132 17.7469 25.6952 17.7754C25.7754 17.8042 25.8535 17.8389 25.9378 17.8557C29.7069 18.6933 30.7283 15.6304 31 15.1786C30.1046 16.6634 28.5991 17.0193 26.7541 16.5028C26.4178 16.4004 26.0905 16.2624 25.7764 16.0905C25.4481 15.9082 25.136 15.6895 24.8446 15.4375C23.1943 13.9947 22.1656 11.2421 23.2453 9" fill="white"/>
</svg>
