<svg width="40" height="40" viewBox="0 0 40 40" fill="none" xmlns="http://www.w3.org/2000/svg">
<rect width="40" height="40" rx="5" fill="#EE4323"/>
<path d="M16.7521 29.9928C16.0539 29.7012 15.4518 29.2364 15.0093 28.6474C14.5669 28.0584 14.3006 27.3671 14.2385 26.6466C14.2797 25.9018 14.5064 25.1769 14.9002 24.5311C15.294 23.8854 15.8437 23.3372 16.5041 22.9315C16.3952 23.1812 16.3508 23.452 16.3745 23.7212C16.3982 23.9905 16.4894 24.2505 16.6406 24.4796C16.8098 24.7047 17.0445 24.8782 17.3161 24.979C17.5877 25.0798 17.8844 25.1035 18.1699 25.0473C18.4415 24.9748 18.6875 24.8343 18.8818 24.6405C19.0762 24.4467 19.2118 24.2068 19.2742 23.9461C19.3367 23.6854 19.3238 23.4135 19.2368 23.1592C19.1499 22.9049 18.9921 22.6775 18.7801 22.501C18.3158 22.1443 17.9567 21.6797 17.7379 21.1526C17.5191 20.6255 17.4479 20.0537 17.5313 19.4928C17.6951 18.8871 18.0487 18.3426 18.5453 17.9309C18.1692 18.8779 19.2234 19.8071 19.9341 20.2691C21.1899 20.9817 22.3992 21.7656 23.5552 22.6165C24.1775 23.0813 24.6709 23.6827 24.9928 24.3688C25.3147 25.0549 25.4553 25.8049 25.4024 26.554C25.2647 27.3434 24.9006 28.0818 24.3497 28.6883C23.7989 29.2948 23.0827 29.746 22.2793 29.9928C25.5548 29.3024 28.9349 26.8349 29 23.3351C28.9678 21.9637 28.5256 20.629 27.7249 19.4861C26.9242 18.3432 25.7978 17.4389 24.4764 16.8783H24.3572C24.4147 17.0148 24.4431 17.1618 24.4397 17.3121C24.4473 17.2153 24.4473 17.1181 24.4397 17.0213C24.4542 17.1375 24.4542 17.2504 24.4397 17.3626C24.3408 17.7458 24.0855 18.0761 23.7298 18.2812C23.3742 18.4863 22.9472 18.5494 22.5425 18.4566C22.2067 18.3783 21.9075 18.1972 21.6913 17.9414C20.6087 16.6289 21.6913 15.1353 21.8714 13.6889C21.9263 12.7825 21.739 11.8775 21.3267 11.0579C20.9145 10.2383 20.2906 9.53048 19.5129 9C20.3025 10.2475 19.249 11.8882 18.4844 12.8213C17.7197 13.7545 16.6122 14.4482 15.7062 15.2619C14.7325 16.1225 13.8407 17.0626 13.0409 18.0713C12.1862 19.0607 11.5766 20.2191 11.2569 21.4613C10.9372 22.7034 10.9156 23.9977 11.1937 25.2488C11.5721 26.4465 12.2901 27.5229 13.2696 28.3607C14.2491 29.1984 15.4525 29.7655 16.7486 30H16.7632L16.7521 29.9928Z" fill="white"/>
</svg>
