<svg width="40" height="40" viewBox="0 0 40 40" fill="none" xmlns="http://www.w3.org/2000/svg">
<rect width="40" height="40" rx="5" fill="black"/>
<path d="M16.25 33C18.596 33 20.5 31.0587 20.5 28.6667V24.3333H16.25C13.904 24.3333 12 26.2747 12 28.6667C12 31.0587 13.904 33 16.25 33Z" fill="#0ACF83"/>
<path d="M12 20C12 17.608 13.904 15.6667 16.25 15.6667H20.5V24.3333H16.25C13.904 24.3333 12 22.392 12 20Z" fill="#A259FF"/>
<path d="M12 11.3333C12 8.94133 13.904 7 16.25 7H20.5V15.6667H16.25C13.904 15.6667 12 13.7253 12 11.3333Z" fill="#F24E1E"/>
<path d="M20.5 7H24.75C27.096 7 29 8.94133 29 11.3333C29 13.7253 27.096 15.6667 24.75 15.6667H20.5V7Z" fill="#FF7262"/>
<path d="M29 20C29 22.392 27.096 24.3333 24.75 24.3333C22.404 24.3333 20.5 22.392 20.5 20C20.5 17.608 22.404 15.6667 24.75 15.6667C27.096 15.6667 29 17.608 29 20Z" fill="#1ABCFE"/>
</svg>
