<svg width="40" height="40" viewBox="0 0 40 40" fill="none" xmlns="http://www.w3.org/2000/svg">
<rect width="40" height="40" rx="5" fill="#2C94F4"/>
<path fill-rule="evenodd" clip-rule="evenodd" d="M40 40H0V0H40V40ZM31.7508 16.9542V13.8519C31.2398 13.6244 28.314 12.7874 26.0025 13.6695C22.6728 14.9399 22.7924 18.7673 24.0559 20.2694C25.693 22.2156 29.7655 22.9413 29.0991 24.8516C28.754 25.8408 27.143 26.013 25.7227 25.6809C24.4 25.3716 23.25 24.5882 23.25 24.5882V27.873C23.25 27.873 24.3867 28.5067 25.7819 28.6575C27.5704 28.8507 29.8123 28.4859 30.9354 27.4876C32.9346 25.7105 33.2416 21.7737 29.453 19.9457C26.3002 18.4246 26.3521 17.9905 26.3742 17.2102C26.4039 16.1652 28.598 15.522 31.7508 16.9542V16.9542ZM14.7492 8.24805C17.3724 8.3393 21.2275 9.54828 21.2275 14.7035C21.2275 19.8588 16.5108 21.5504 12.207 21.1818V28.4813H9.00078V8.31641C9.00078 8.31641 12.1259 8.1568 14.7491 8.24805H14.7492ZM15.5818 17.9883C16.9643 17.4838 17.8629 16.3994 17.8629 14.7148C17.8629 12.9288 16.9484 11.7194 15.5498 11.3777C14.0353 11.0077 12.207 11.2258 12.207 11.2258V18.2605C12.207 18.2605 14.7378 18.2962 15.5818 17.9883V17.9883Z" fill="black"/>
</svg>
