<svg width="42" height="42" viewBox="0 0 42 42" fill="none" xmlns="http://www.w3.org/2000/svg">
<path d="M31.7861 18.8457H30.9V18.8H21V23.2H27.2167C26.3097 25.7614 23.8727 27.6 21 27.6C17.3552 27.6 14.4 24.6448 14.4 21C14.4 17.3552 17.3552 14.4 21 14.4C22.6825 14.4 24.2131 15.0347 25.3786 16.0714L28.4899 12.9601C26.5253 11.1292 23.8974 10 21 10C14.9253 10 10 14.9253 10 21C10 27.0748 14.9253 32 21 32C27.0748 32 32 27.0748 32 21C32 20.2625 31.9241 19.5425 31.7861 18.8457Z" fill="#FFC107"/>
<path d="M11 16.2037L14.5675 19C15.5329 16.4456 17.8707 14.6422 20.6065 14.6422C22.2673 14.6422 23.7782 15.3118 24.9287 16.4056L28 13.123C26.0607 11.1913 23.4666 10 20.6065 10C16.4357 10 12.8188 12.5166 11 16.2037Z" fill="#FF3D00"/>
<path d="M20.6971 32C23.5106 32 26.0671 30.8842 28 29.0696L24.6288 26.1133C23.4984 27.0041 22.1172 27.4859 20.6971 27.4848C17.8639 27.4848 15.4583 25.6126 14.5521 23L11 25.8361C12.8027 29.4918 16.4637 32 20.6971 32Z" fill="#4CAF50"/>
<path d="M31.786 19.0441H30.9V19H21V23.2489H27.2167C26.7828 24.4261 26.0013 25.4548 24.9688 26.2078L24.9704 26.2067L28.375 28.9887C28.1341 29.2001 32 26.4356 32 21.1245C32 20.4122 31.9241 19.717 31.786 19.0441Z" fill="#1976D2"/>
<rect x="1" y="1" width="40" height="40" rx="5" stroke="#EEEEEE" stroke-width="0.5"/>
</svg>
