<svg width="40" height="40" viewBox="0 0 40 40" fill="none" xmlns="http://www.w3.org/2000/svg">
<rect width="40" height="40" rx="5" fill="#6884E8"/>
<path d="M20 13C13.3737 13 8 15.9074 8 19.4992C8 23.091 13.3737 26 20 26C26.6262 26 32 23.091 32 19.4992C32 15.9074 26.6262 13 20 13ZM20 13.6488C26.4275 13.6488 31.37 16.4365 31.37 19.4992C31.37 22.5619 26.4237 25.3512 20 25.3512C13.5725 25.3512 8.63 22.5619 8.63 19.4992C8.63 16.4365 13.5763 13.6488 20 13.6488ZM18.5428 14.9373L17.3293 21.3793H18.683L19.382 17.6871C20.4837 17.6871 20.9398 17.6423 21.14 17.864C21.3478 18.0934 21.2413 18.3452 20.6698 21.3786H22.0422C22.6362 18.2425 22.8987 17.5766 22.3497 17.0568C21.827 16.5601 20.744 16.6474 19.5747 16.6474L19.8973 14.9373H18.5428ZM12.866 16.6521L11.6525 23.0988H13.0152L13.3377 21.3863C14.8618 21.3863 15.809 21.5006 16.6842 20.6563C17.6525 19.7395 17.9053 18.1073 17.2145 17.2908C16.8545 16.8629 16.2747 16.6521 15.4895 16.6521H12.8653H12.866ZM23.51 16.6521L22.2943 23.0988H23.6593L23.9818 21.3863C25.5845 21.3863 26.4718 21.4821 27.3283 20.6563C28.2965 19.7395 28.55 18.1073 27.8592 17.2908C27.4993 16.8629 26.9195 16.6521 26.1335 16.6521H23.51ZM15.002 17.6678C15.8533 17.6925 16.34 17.8779 16.1345 18.9786C15.8412 20.5266 14.807 20.3667 13.5343 20.3667L14.0428 17.6693C14.3953 17.6693 14.7178 17.6593 15.002 17.6678ZM25.6467 17.6678C26.4995 17.6925 26.981 17.8779 26.7747 18.9786C26.4778 20.549 25.4135 20.3667 24.1745 20.3667L24.683 17.6693C25.0378 17.6693 25.3632 17.6593 25.6467 17.6678Z" fill="white"/>
</svg>
