<svg width="40" height="40" viewBox="0 0 40 40" fill="none" xmlns="http://www.w3.org/2000/svg">
<rect width="40" height="40" rx="5" fill="#00D8FF" fill-opacity="0.5"/>
<path d="M20 22.0101C21.1218 22.0101 22.0312 21.1007 22.0312 19.9789C22.0312 18.857 21.1218 17.9476 20 17.9476C18.8782 17.9476 17.9688 18.857 17.9688 19.9789C17.9688 21.1007 18.8782 22.0101 20 22.0101Z" fill="white" fill-opacity="0.5"/>
<path d="M20 24.6361C17.5585 24.6952 15.1232 24.3661 12.785 23.6611C11.7049 23.3187 10.6975 22.7793 9.81369 22.0703C9.47644 21.828 9.1956 21.5157 8.99042 21.1547C8.78524 20.7937 8.66058 20.3926 8.625 19.9789C8.625 18.6358 10.1005 17.3196 12.5721 16.4583C14.9728 15.6952 17.4812 15.3253 20 15.3631C22.4852 15.3283 24.9599 15.6915 27.3304 16.4388C28.3706 16.7704 29.3439 17.2837 30.205 17.9549C30.5365 18.1859 30.8131 18.4869 31.0153 18.8367C31.2175 19.1864 31.3403 19.5764 31.375 19.9789C31.375 21.3747 29.7256 22.7893 27.0688 23.6684C24.7758 24.3504 22.3919 24.6768 20 24.6361ZM20 16.3348C17.5902 16.3026 15.1907 16.6542 12.8914 17.3764C10.6164 18.1702 9.59675 19.2557 9.59675 19.9764C9.59675 20.7304 10.6928 21.9159 13.0994 22.7389C15.3363 23.4099 17.6654 23.7223 20 23.6644C22.2883 23.7053 24.5694 23.3957 26.7641 22.7462C29.2625 21.9183 30.4 20.7312 30.4 19.9789C30.359 19.7207 30.2649 19.4738 30.1237 19.2538C29.9824 19.0338 29.7971 18.8455 29.5794 18.7008C28.8089 18.1054 27.9395 17.6504 27.0111 17.3569C24.7434 16.645 22.3765 16.2999 20 16.3348Z" fill="white" fill-opacity="0.5"/>
<path d="M15.385 30.1099C15.006 30.1186 14.6314 30.0267 14.2995 29.8434C13.136 29.1723 12.733 27.2369 13.2213 24.6654C13.7597 22.2044 14.6926 19.8467 15.9838 17.6836C17.195 15.5135 18.7457 13.5511 20.5769 11.8709C21.3838 11.1354 22.3147 10.5486 23.3264 10.1379C23.6923 9.96639 24.0915 9.87749 24.4956 9.87749C24.8997 9.87749 25.2988 9.96639 25.6648 10.1379C26.8746 10.835 27.2751 12.9703 26.7104 15.7108C26.1554 18.0383 25.2468 20.2669 24.0162 22.3189C22.8476 24.4634 21.3458 26.4086 19.5669 28.0819C18.7307 28.8463 17.7602 29.4493 16.7045 29.8605C16.2819 30.0174 15.8357 30.1017 15.385 30.1099ZM16.8256 18.1662C15.5939 20.2375 14.6998 22.4917 14.1768 24.8441C13.7275 27.2126 14.1589 28.6369 14.7862 28.9993C15.4362 29.3754 17.0141 29.0188 18.9299 27.345C20.6281 25.7419 22.0615 23.8799 23.1769 21.8281C24.3558 19.8664 25.2274 17.7357 25.7614 15.5101C26.2928 12.9304 25.8338 11.3509 25.1821 10.9756C24.9379 10.882 24.6769 10.8401 24.4157 10.8525C24.1544 10.865 23.8986 10.9315 23.6644 11.0479C22.7639 11.4195 21.936 11.947 21.2188 12.6063C19.4692 14.2156 17.988 16.0943 16.8313 18.1711L16.8256 18.1662Z" fill="white" fill-opacity="0.5"/>
<path d="M24.6126 30.1205C23.5116 30.1205 22.1133 29.4543 20.6573 28.2022C18.794 26.5067 17.2172 24.5211 15.9879 22.3221C14.7128 20.1888 13.7874 17.8652 13.2465 15.4394C13.0119 14.3722 12.9685 13.2718 13.1181 12.1894C13.1527 11.7879 13.275 11.3989 13.4763 11.0497C13.6776 10.7006 13.9531 10.3999 14.2832 10.1688C15.4914 9.46919 17.5414 10.1883 19.6336 12.0456C21.3728 13.6887 22.8498 15.5887 24.0129 17.6795C25.2872 19.763 26.2224 22.0357 26.7836 24.4127C27.0282 25.5191 27.066 26.6612 26.8949 27.7813C26.8542 28.1944 26.7246 28.5938 26.5151 28.9521C26.3056 29.3104 26.021 29.6192 25.681 29.8573C25.3545 30.0382 24.9858 30.1291 24.6126 30.1205ZM16.8288 21.833C18.0081 23.9345 19.5144 25.8349 21.2911 27.4628C23.1184 29.035 24.5679 29.373 25.1911 29.0066C25.8411 28.6288 26.3204 27.0866 25.8264 24.5914C25.2852 22.3221 24.3882 20.1527 23.1687 18.1638C22.0587 16.1627 20.649 14.3433 18.9884 12.7688C17.0189 11.0203 15.4216 10.6294 14.7707 11.0064C14.5679 11.1713 14.4014 11.3764 14.2819 11.6088C14.1623 11.8412 14.0922 12.0959 14.0761 12.3568C13.9469 13.3221 13.989 14.3027 14.2004 15.2534C14.7206 17.5732 15.6082 19.7949 16.8296 21.8346L16.8288 21.833Z" fill="white" fill-opacity="0.5"/>
<path d="M8.364 18.042C7.968 18.042 7.604 17.95 7.272 17.766C6.944 17.582 6.682 17.326 6.486 16.998C6.294 16.666 6.198 16.294 6.198 15.882C6.198 15.47 6.294 15.1 6.486 14.772C6.682 14.444 6.944 14.188 7.272 14.004C7.604 13.82 7.968 13.728 8.364 13.728C8.76 13.728 9.122 13.82 9.45 14.004C9.782 14.188 10.042 14.444 10.23 14.772C10.422 15.1 10.518 15.47 10.518 15.882C10.518 16.294 10.422 16.666 10.23 16.998C10.038 17.326 9.778 17.582 9.45 17.766C9.122 17.95 8.76 18.042 8.364 18.042ZM8.364 17.106C8.7 17.106 8.968 16.994 9.168 16.77C9.372 16.546 9.474 16.25 9.474 15.882C9.474 15.51 9.372 15.214 9.168 14.994C8.968 14.77 8.7 14.658 8.364 14.658C8.024 14.658 7.752 14.768 7.548 14.988C7.348 15.208 7.248 15.506 7.248 15.882C7.248 16.254 7.348 16.552 7.548 16.776C7.752 16.996 8.024 17.106 8.364 17.106ZM13.1288 14.616C13.5208 14.616 13.8328 14.744 14.0648 15C14.3008 15.252 14.4188 15.6 14.4188 16.044V18H13.3988V16.182C13.3988 15.958 13.3408 15.784 13.2248 15.66C13.1088 15.536 12.9528 15.474 12.7568 15.474C12.5608 15.474 12.4048 15.536 12.2888 15.66C12.1728 15.784 12.1148 15.958 12.1148 16.182V18H11.0888V14.652H12.1148V15.096C12.2188 14.948 12.3588 14.832 12.5348 14.748C12.7108 14.66 12.9088 14.616 13.1288 14.616ZM9.582 24.144C9.582 24.388 9.526 24.612 9.414 24.816C9.302 25.016 9.13 25.178 8.898 25.302C8.666 25.426 8.378 25.488 8.034 25.488H7.398V27H6.372V22.788H8.034C8.37 22.788 8.654 22.846 8.886 22.962C9.118 23.078 9.292 23.238 9.408 23.442C9.524 23.646 9.582 23.88 9.582 24.144ZM7.956 24.672C8.152 24.672 8.298 24.626 8.394 24.534C8.49 24.442 8.538 24.312 8.538 24.144C8.538 23.976 8.49 23.846 8.394 23.754C8.298 23.662 8.152 23.616 7.956 23.616H7.398V24.672H7.956ZM11.1421 24.21C11.2621 24.026 11.4121 23.882 11.5921 23.778C11.7721 23.67 11.9721 23.616 12.1921 23.616V24.702H11.9101C11.6541 24.702 11.4621 24.758 11.3341 24.87C11.2061 24.978 11.1421 25.17 11.1421 25.446V27H10.1161V23.652H11.1421V24.21ZM14.2065 27.048C13.8785 27.048 13.5825 26.978 13.3185 26.838C13.0585 26.698 12.8525 26.498 12.7005 26.238C12.5525 25.978 12.4785 25.674 12.4785 25.326C12.4785 24.982 12.5545 24.68 12.7065 24.42C12.8585 24.156 13.0665 23.954 13.3305 23.814C13.5945 23.674 13.8905 23.604 14.2185 23.604C14.5465 23.604 14.8425 23.674 15.1065 23.814C15.3705 23.954 15.5785 24.156 15.7305 24.42C15.8825 24.68 15.9585 24.982 15.9585 25.326C15.9585 25.67 15.8805 25.974 15.7245 26.238C15.5725 26.498 15.3625 26.698 15.0945 26.838C14.8305 26.978 14.5345 27.048 14.2065 27.048ZM14.2065 26.16C14.4025 26.16 14.5685 26.088 14.7045 25.944C14.8445 25.8 14.9145 25.594 14.9145 25.326C14.9145 25.058 14.8465 24.852 14.7105 24.708C14.5785 24.564 14.4145 24.492 14.2185 24.492C14.0185 24.492 13.8525 24.564 13.7205 24.708C13.5885 24.848 13.5225 25.054 13.5225 25.326C13.5225 25.594 13.5865 25.8 13.7145 25.944C13.8465 26.088 14.0105 26.16 14.2065 26.16ZM17.7749 23.604C18.0109 23.604 18.2169 23.652 18.3929 23.748C18.5729 23.844 18.7109 23.97 18.8069 24.126V23.652H19.8329V26.994C19.8329 27.302 19.7709 27.58 19.6469 27.828C19.5269 28.08 19.3409 28.28 19.0889 28.428C18.8409 28.576 18.5309 28.65 18.1589 28.65C17.6629 28.65 17.2609 28.532 16.9529 28.296C16.6449 28.064 16.4689 27.748 16.4249 27.348H17.4389C17.4709 27.476 17.5469 27.576 17.6669 27.648C17.7869 27.724 17.9349 27.762 18.1109 27.762C18.3229 27.762 18.4909 27.7 18.6149 27.576C18.7429 27.456 18.8069 27.262 18.8069 26.994V26.52C18.7069 26.676 18.5689 26.804 18.3929 26.904C18.2169 27 18.0109 27.048 17.7749 27.048C17.4989 27.048 17.2489 26.978 17.0249 26.838C16.8009 26.694 16.6229 26.492 16.4909 26.232C16.3629 25.968 16.2989 25.664 16.2989 25.32C16.2989 24.976 16.3629 24.674 16.4909 24.414C16.6229 24.154 16.8009 23.954 17.0249 23.814C17.2489 23.674 17.4989 23.604 17.7749 23.604ZM18.8069 25.326C18.8069 25.07 18.7349 24.868 18.5909 24.72C18.4509 24.572 18.2789 24.498 18.0749 24.498C17.8709 24.498 17.6969 24.572 17.5529 24.72C17.4129 24.864 17.3429 25.064 17.3429 25.32C17.3429 25.576 17.4129 25.78 17.5529 25.932C17.6969 26.08 17.8709 26.154 18.0749 26.154C18.2789 26.154 18.4509 26.08 18.5909 25.932C18.7349 25.784 18.8069 25.582 18.8069 25.326ZM21.6011 24.21C21.7211 24.026 21.8711 23.882 22.0511 23.778C22.2311 23.67 22.4311 23.616 22.6511 23.616V24.702H22.3691C22.1131 24.702 21.9211 24.758 21.7931 24.87C21.6651 24.978 21.6011 25.17 21.6011 25.446V27H20.5751V23.652H21.6011V24.21ZM26.2975 25.272C26.2975 25.368 26.2915 25.468 26.2795 25.572H23.9575C23.9735 25.78 24.0395 25.94 24.1555 26.052C24.2755 26.16 24.4215 26.214 24.5935 26.214C24.8495 26.214 25.0275 26.106 25.1275 25.89H26.2195C26.1635 26.11 26.0615 26.308 25.9135 26.484C25.7695 26.66 25.5875 26.798 25.3675 26.898C25.1475 26.998 24.9015 27.048 24.6295 27.048C24.3015 27.048 24.0095 26.978 23.7535 26.838C23.4975 26.698 23.2975 26.498 23.1535 26.238C23.0095 25.978 22.9375 25.674 22.9375 25.326C22.9375 24.978 23.0075 24.674 23.1475 24.414C23.2915 24.154 23.4915 23.954 23.7475 23.814C24.0035 23.674 24.2975 23.604 24.6295 23.604C24.9535 23.604 25.2415 23.672 25.4935 23.808C25.7455 23.944 25.9415 24.138 26.0815 24.39C26.2255 24.642 26.2975 24.936 26.2975 25.272ZM25.2475 25.002C25.2475 24.826 25.1875 24.686 25.0675 24.582C24.9475 24.478 24.7975 24.426 24.6175 24.426C24.4455 24.426 24.2995 24.476 24.1795 24.576C24.0635 24.676 23.9915 24.818 23.9635 25.002H25.2475ZM28.2008 27.048C27.9088 27.048 27.6488 26.998 27.4208 26.898C27.1928 26.798 27.0128 26.662 26.8808 26.49C26.7488 26.314 26.6748 26.118 26.6588 25.902H27.6728C27.6848 26.018 27.7388 26.112 27.8348 26.184C27.9308 26.256 28.0488 26.292 28.1888 26.292C28.3168 26.292 28.4148 26.268 28.4828 26.22C28.5548 26.168 28.5908 26.102 28.5908 26.022C28.5908 25.926 28.5408 25.856 28.4408 25.812C28.3408 25.764 28.1788 25.712 27.9548 25.656C27.7148 25.6 27.5148 25.542 27.3548 25.482C27.1948 25.418 27.0568 25.32 26.9408 25.188C26.8248 25.052 26.7668 24.87 26.7668 24.642C26.7668 24.45 26.8188 24.276 26.9228 24.12C27.0308 23.96 27.1868 23.834 27.3908 23.742C27.5988 23.65 27.8448 23.604 28.1288 23.604C28.5488 23.604 28.8788 23.708 29.1188 23.916C29.3628 24.124 29.5028 24.4 29.5388 24.744H28.5908C28.5748 24.628 28.5228 24.536 28.4348 24.468C28.3508 24.4 28.2388 24.366 28.0988 24.366C27.9788 24.366 27.8868 24.39 27.8228 24.438C27.7588 24.482 27.7268 24.544 27.7268 24.624C27.7268 24.72 27.7768 24.792 27.8768 24.84C27.9808 24.888 28.1408 24.936 28.3568 24.984C28.6048 25.048 28.8068 25.112 28.9628 25.176C29.1188 25.236 29.2548 25.336 29.3708 25.476C29.4908 25.612 29.5528 25.796 29.5568 26.028C29.5568 26.224 29.5008 26.4 29.3888 26.556C29.2808 26.708 29.1228 26.828 28.9148 26.916C28.7108 27.004 28.4728 27.048 28.2008 27.048ZM31.5465 27.048C31.2545 27.048 30.9945 26.998 30.7665 26.898C30.5385 26.798 30.3585 26.662 30.2265 26.49C30.0945 26.314 30.0205 26.118 30.0045 25.902H31.0185C31.0305 26.018 31.0845 26.112 31.1805 26.184C31.2765 26.256 31.3945 26.292 31.5345 26.292C31.6625 26.292 31.7605 26.268 31.8285 26.22C31.9005 26.168 31.9365 26.102 31.9365 26.022C31.9365 25.926 31.8865 25.856 31.7865 25.812C31.6865 25.764 31.5245 25.712 31.3005 25.656C31.0605 25.6 30.8605 25.542 30.7005 25.482C30.5405 25.418 30.4025 25.32 30.2865 25.188C30.1705 25.052 30.1125 24.87 30.1125 24.642C30.1125 24.45 30.1645 24.276 30.2685 24.12C30.3765 23.96 30.5325 23.834 30.7365 23.742C30.9445 23.65 31.1905 23.604 31.4745 23.604C31.8945 23.604 32.2245 23.708 32.4645 23.916C32.7085 24.124 32.8485 24.4 32.8845 24.744H31.9365C31.9205 24.628 31.8685 24.536 31.7805 24.468C31.6965 24.4 31.5845 24.366 31.4445 24.366C31.3245 24.366 31.2325 24.39 31.1685 24.438C31.1045 24.482 31.0725 24.544 31.0725 24.624C31.0725 24.72 31.1225 24.792 31.2225 24.84C31.3265 24.888 31.4865 24.936 31.7025 24.984C31.9505 25.048 32.1525 25.112 32.3085 25.176C32.4645 25.236 32.6005 25.336 32.7165 25.476C32.8365 25.612 32.8985 25.796 32.9025 26.028C32.9025 26.224 32.8465 26.4 32.7345 26.556C32.6265 26.708 32.4685 26.828 32.2605 26.916C32.0565 27.004 31.8185 27.048 31.5465 27.048Z" fill="#323232"/>
</svg>
