<svg width="40" height="40" viewBox="0 0 40 40" fill="none" xmlns="http://www.w3.org/2000/svg">
<rect width="40" height="40" rx="5" fill="#F5DE19"/>
<path d="M22.394 23.4896C22.6525 24.0422 23.0536 24.5067 23.5512 24.8297C24.0488 25.1526 24.6228 25.321 25.2071 25.3155C26.3886 25.3155 27.1436 24.6925 27.1436 23.8323C27.1436 22.8016 26.3678 22.4361 25.0679 21.836L24.3546 21.5135C22.2973 20.5892 20.9299 19.4311 20.9299 16.9832C20.9299 14.7277 22.5598 13.0117 25.1062 13.0117C25.9327 12.9484 26.7585 13.1435 27.4804 13.5725C28.2023 14.0015 28.7883 14.6453 29.1651 15.4236L26.9444 16.9269C26.799 16.5413 26.5458 16.2114 26.2183 15.9812C25.8909 15.751 25.5048 15.6312 25.1112 15.638C24.9397 15.6198 24.7665 15.6395 24.6026 15.6958C24.4387 15.7521 24.2877 15.8438 24.1593 15.9651C24.0309 16.0864 23.9278 16.2346 23.8567 16.4002C23.7856 16.5658 23.748 16.7452 23.7464 16.9269C23.7464 17.8293 24.2763 18.194 25.4962 18.7528L26.2095 19.0744C28.6326 20.1701 30 21.2868 30 23.798C30 26.5052 27.9835 27.9883 25.2746 27.9883C24.2194 28.0591 23.1673 27.8064 22.2453 27.2607C21.3233 26.7151 20.5707 25.8997 20.0783 24.9131L22.394 23.4896ZM12.3215 23.7532C12.7698 24.5915 13.1772 25.2997 14.1547 25.2997C15.0912 25.2997 15.6829 24.9131 15.6829 23.4105V13.1874H18.5343V23.4527C18.5343 26.5658 16.8028 27.9831 14.2763 27.9831C13.3839 28.034 12.4977 27.7989 11.7344 27.3086C10.9711 26.8184 10.3665 26.0959 10 25.2364L12.3215 23.7532Z" fill="white"/>
</svg>
