<svg width="40" height="40" viewBox="0 0 40 40" fill="none" xmlns="http://www.w3.org/2000/svg">
<rect width="40" height="40" rx="5" fill="#3294CB"/>
<path d="M12.5 11.5625C12.5 11.3086 12.5928 11.0889 12.7783 10.9033C12.9639 10.7178 13.1836 10.625 13.4375 10.625C13.6914 10.625 13.9111 10.7178 14.0967 10.9033C14.2822 11.0889 14.375 11.3086 14.375 11.5625C14.375 11.8164 14.2822 12.0361 14.0967 12.2217C13.9111 12.4072 13.6914 12.5 13.4375 12.5C13.1836 12.5 12.9639 12.4072 12.7783 12.2217C12.5928 12.0361 12.5 11.8164 12.5 11.5625ZM35 35C34.9023 34.9609 34.7607 34.9072 34.5752 34.8389C34.3896 34.7705 34.0381 34.6191 33.5205 34.3848C33.0029 34.1504 32.5 33.9014 32.0117 33.6377C31.5234 33.374 30.9814 33.0225 30.3857 32.583C29.79 32.1436 29.2676 31.6797 28.8184 31.1914C28.4277 30.918 27.8516 30.3711 27.0898 29.5508C27.5 29.2773 28.1299 29.0479 28.9795 28.8623C29.8291 28.6768 30.5762 28.5547 31.2207 28.4961L32.1875 28.4375C32.1875 28.125 31.9092 27.7979 31.3525 27.4561C30.7959 27.1143 30.1465 26.8018 29.4043 26.5186C28.6621 26.2354 27.8564 25.8398 26.9873 25.332C26.1182 24.8242 25.4395 24.2871 24.9512 23.7207C24.5801 23.291 24.2383 22.8174 23.9258 22.2998C23.6133 21.7822 23.252 21.1084 22.8418 20.2783C22.4316 19.4482 22.1973 18.9746 22.1387 18.8574C21.748 18.252 21.1865 17.4316 20.4541 16.3965C19.7217 15.3613 19.2578 14.6875 19.0625 14.375C18.457 13.4375 17.3975 12.2656 15.8838 10.8594C14.3701 9.45312 13.2422 8.75 12.5 8.75C12.0117 8.75 11.5625 8.84766 11.1523 9.04297C9.16016 7.59766 8.04688 6.875 7.8125 6.875C7.55859 6.875 7.33887 6.96777 7.15332 7.15332C6.96777 7.33887 6.875 7.55859 6.875 7.8125C6.875 7.96875 7.17773 8.51562 7.7832 9.45312C8.38867 10.3906 9.0332 11.3281 9.7168 12.2656C9.75586 12.5977 9.80469 12.9297 9.86328 13.2617C9.92188 13.5938 9.97559 13.877 10.0244 14.1113C10.0732 14.3457 10.1611 14.624 10.2881 14.9463C10.415 15.2686 10.5078 15.5029 10.5664 15.6494C10.625 15.7959 10.7471 16.0352 10.9326 16.3672C11.1182 16.6992 11.2305 16.8994 11.2695 16.9678C11.3086 17.0361 11.4355 17.2461 11.6504 17.5977C11.8652 17.9492 11.9824 18.1348 12.002 18.1543C11.8262 18.1348 11.6797 18.125 11.5625 18.125C11.2891 18.125 11.0645 18.5596 10.8887 19.4287C10.7129 20.2979 10.625 21.4258 10.625 22.8125C10.625 23.125 10.8789 23.7305 11.3867 24.6289C11.9922 25.6836 12.3535 25.8594 12.4707 25.1562C12.4902 25.0391 12.5 24.8828 12.5 24.6875C12.5 23.0859 12.9883 22.168 13.9648 21.9336C15.1172 24.2188 16.1035 26.084 16.9238 27.5293C17.7441 28.9746 18.5547 30.1953 19.3555 31.1914C17.7344 29.9414 16.0059 27.8809 14.1699 25.0098C13.9941 25.6738 13.7549 26.2549 13.4521 26.7529C13.1494 27.251 12.832 27.5 12.5 27.5C11.9141 27.5 11.3184 27.1582 10.7129 26.4746C10.1074 25.791 9.62891 25.0146 9.27734 24.1455C8.92578 23.2764 8.75 22.5195 8.75 21.875C8.75 21.2695 8.82812 20.542 8.98438 19.6924C9.14062 18.8428 9.3457 18.1152 9.59961 17.5098C9.13086 16.8457 8.76465 16.1865 8.50098 15.5322C8.2373 14.8779 8.04688 14.0039 7.92969 12.9102C7.83203 12.7344 7.69531 12.4805 7.51953 12.1484C5.83984 9.08203 5 7.32422 5 6.875C5 6.36719 5.18555 5.92773 5.55664 5.55664C5.92773 5.18555 6.36719 5 6.875 5C7.28516 5 8.04688 5.21484 9.16016 5.64453C10.2734 6.07422 11.1426 6.50391 11.7676 6.93359C12.041 6.89453 12.2852 6.875 12.5 6.875C13.4375 6.875 14.7314 7.54883 16.3818 8.89648C18.0322 10.2441 19.2383 11.4453 20 12.5C20.0195 12.5195 20.2441 12.8271 20.6738 13.4229C21.1035 14.0186 21.3721 14.3945 21.4795 14.5508C21.5869 14.707 21.8262 15.0488 22.1973 15.5762C22.5684 16.1035 22.832 16.5039 22.9883 16.7773C23.1445 17.0508 23.3545 17.4023 23.6182 17.832C23.8818 18.2617 24.0967 18.6523 24.2627 19.0039C24.4287 19.3555 24.5703 19.6875 24.6875 20C25.0391 20.8594 25.6348 21.6602 26.4746 22.4023C27.3145 23.1445 28.2031 23.7695 29.1406 24.2773C30.0781 24.7852 30.9961 25.2881 31.8945 25.7861C32.793 26.2842 33.5352 26.8359 34.1211 27.4414C34.707 28.0469 35 28.6914 35 29.375C34.7266 29.3945 34.3701 29.4238 33.9307 29.4629C33.4912 29.502 32.8076 29.6143 31.8799 29.7998C30.9521 29.9854 30.2832 30.2148 29.873 30.4883C30.2637 30.9766 30.8936 31.5576 31.7627 32.2314C32.6318 32.9053 33.3887 33.4863 34.0332 33.9746C34.6777 34.4629 35 34.8047 35 35Z" fill="white"/>
</svg>
