<svg width="25" height="25" viewBox="0 0 25 25" fill="none" xmlns="http://www.w3.org/2000/svg">
<path fill-rule="evenodd" clip-rule="evenodd" d="M7.77605 1.11041C8.99792 1.05416 9.3875 1.04166 12.5 1.04166C15.6125 1.04166 16.0021 1.0552 17.2229 1.11041C18.4438 1.16561 19.2771 1.36041 20.0063 1.6427C20.7698 1.93124 21.4625 2.38228 22.0354 2.96561C22.6188 3.53749 23.0688 4.22916 23.3563 4.99374C23.6396 5.72291 23.8333 6.55624 23.8896 7.77499C23.9458 8.99895 23.9583 9.38853 23.9583 12.5C23.9583 15.6125 23.9448 16.0021 23.8896 17.2239C23.8344 18.4427 23.6396 19.276 23.3563 20.0052C23.0687 20.7699 22.618 21.4627 22.0354 22.0354C21.4625 22.6187 20.7698 23.0687 20.0063 23.3562C19.2771 23.6396 18.4438 23.8333 17.225 23.8896C16.0021 23.9458 15.6125 23.9583 12.5 23.9583C9.3875 23.9583 8.99792 23.9448 7.77605 23.8896C6.5573 23.8344 5.72396 23.6396 4.9948 23.3562C4.23013 23.0687 3.53732 22.618 2.96459 22.0354C2.38165 21.4632 1.93054 20.7707 1.64271 20.0062C1.36042 19.2771 1.16667 18.4437 1.11042 17.225C1.05417 16.001 1.04167 15.6114 1.04167 12.5C1.04167 9.38749 1.05521 8.99791 1.11042 7.77707C1.16563 6.55624 1.36042 5.72291 1.64271 4.99374C1.93097 4.22924 2.38242 3.53677 2.96563 2.96457C3.53755 2.38176 4.22966 1.93066 4.99376 1.6427C5.72292 1.36041 6.55626 1.16666 7.775 1.11041H7.77605ZM17.1302 3.17291C15.9219 3.1177 15.5594 3.10624 12.5 3.10624C9.44063 3.10624 9.07813 3.1177 7.8698 3.17291C6.75209 3.22395 6.14584 3.41041 5.74167 3.5677C5.2073 3.77603 4.82501 4.02291 4.42396 4.42395C4.0438 4.79379 3.75123 5.24403 3.56771 5.74166C3.41042 6.14582 3.22396 6.75207 3.17292 7.86978C3.11771 9.07811 3.10626 9.44061 3.10626 12.5C3.10626 15.5594 3.11771 15.9219 3.17292 17.1302C3.22396 18.2479 3.41042 18.8542 3.56771 19.2583C3.75105 19.7552 4.04376 20.2062 4.42396 20.576C4.79376 20.9562 5.2448 21.2489 5.74167 21.4323C6.14584 21.5896 6.75209 21.776 7.8698 21.8271C9.07813 21.8823 9.43959 21.8937 12.5 21.8937C15.5604 21.8937 15.9219 21.8823 17.1302 21.8271C18.2479 21.776 18.8542 21.5896 19.2583 21.4323C19.7927 21.2239 20.175 20.9771 20.576 20.576C20.9563 20.2062 21.249 19.7552 21.4323 19.2583C21.5896 18.8542 21.776 18.2479 21.8271 17.1302C21.8823 15.9219 21.8938 15.5594 21.8938 12.5C21.8938 9.44061 21.8823 9.07811 21.8271 7.86978C21.776 6.75207 21.5896 6.14582 21.4323 5.74166C21.224 5.20728 20.9771 4.82499 20.576 4.42395C20.2062 4.04381 19.7559 3.75125 19.2583 3.5677C18.8542 3.41041 18.2479 3.22395 17.1302 3.17291ZM11.0365 16.0323C11.8538 16.3725 12.7639 16.4184 13.6114 16.1622C14.4588 15.906 15.191 15.3634 15.6829 14.6273C16.1748 13.8912 16.3959 13.0071 16.3084 12.1261C16.2209 11.2451 15.8302 10.4218 15.2031 9.79686C14.8034 9.39736 14.32 9.09146 13.7879 8.90118C13.2557 8.71091 12.688 8.64099 12.1255 8.69646C11.5631 8.75194 11.02 8.93142 10.5352 9.222C10.0505 9.51258 9.6362 9.90701 9.3222 10.3769C9.00819 10.8468 8.80228 11.3805 8.71929 11.9395C8.6363 12.4986 8.67829 13.069 8.84223 13.6099C9.00618 14.1508 9.28801 14.6485 9.66742 15.0674C10.0468 15.4863 10.5144 15.8158 11.0365 16.0323ZM8.33542 8.33541C8.88232 7.78851 9.53159 7.35468 10.2461 7.0587C10.9607 6.76272 11.7266 6.61038 12.5 6.61038C13.2734 6.61038 14.0393 6.76272 14.7539 7.0587C15.4684 7.35468 16.1177 7.78851 16.6646 8.33541C17.2115 8.88231 17.6453 9.53157 17.9413 10.2461C18.2373 10.9607 18.3896 11.7266 18.3896 12.5C18.3896 13.2734 18.2373 14.0393 17.9413 14.7538C17.6453 15.4684 17.2115 16.1177 16.6646 16.6646C15.5601 17.7691 14.062 18.3896 12.5 18.3896C10.938 18.3896 9.43994 17.7691 8.33542 16.6646C7.23091 15.5601 6.61039 14.062 6.61039 12.5C6.61039 10.938 7.23091 9.43992 8.33542 8.33541ZM19.6958 7.48749C19.8314 7.35964 19.9399 7.20591 20.0149 7.03538C20.0899 6.86485 20.13 6.681 20.1327 6.49471C20.1354 6.30842 20.1008 6.12348 20.0307 5.95083C19.9607 5.77819 19.8567 5.62136 19.725 5.48961C19.5932 5.35787 19.4364 5.2539 19.2637 5.18386C19.0911 5.11382 18.9062 5.07913 18.7199 5.08185C18.5336 5.08456 18.3497 5.12463 18.1792 5.19967C18.0087 5.27472 17.8549 5.38321 17.7271 5.51874C17.4785 5.78231 17.3423 6.13241 17.3476 6.49471C17.3529 6.85701 17.4992 7.20299 17.7554 7.4592C18.0116 7.71541 18.3576 7.86169 18.7199 7.86697C19.0822 7.87225 19.4323 7.73612 19.6958 7.48749Z" fill="#FE5722"/>
</svg>
