<svg width="20" height="20" viewBox="0 0 20 20" fill="none" xmlns="http://www.w3.org/2000/svg">
<path d="M10 1.60715C13.8464 1.60715 16.9643 4.725 16.9643 8.57143C16.9643 11.5143 14.8964 14.7214 10.8143 18.2271C10.5873 18.4221 10.2979 18.5292 9.99866 18.529C9.69943 18.5287 9.41021 18.4211 9.18357 18.2257L8.91357 17.9914C5.01214 14.5771 3.03571 11.4486 3.03571 8.57143C3.03571 4.725 6.15357 1.60715 10 1.60715ZM10 2.67858C8.43712 2.67858 6.93825 3.29943 5.83312 4.40455C4.728 5.50968 4.10714 7.00855 4.10714 8.57143C4.10714 11.0729 5.92714 13.955 9.61714 17.1836L9.88357 17.4143C9.91597 17.4421 9.95728 17.4575 10 17.4575C10.0427 17.4575 10.084 17.4421 10.1164 17.4143C13.985 14.0914 15.8929 11.1321 15.8929 8.57143C15.8929 7.79757 15.7404 7.03129 15.4443 6.31633C15.1481 5.60138 14.7141 4.95176 14.1669 4.40455C13.6197 3.85735 12.9701 3.42329 12.2551 3.12714C11.5401 2.831 10.7739 2.67858 10 2.67858ZM10 5.89286C10.7104 5.89286 11.3917 6.17507 11.894 6.6774C12.3964 7.17973 12.6786 7.86103 12.6786 8.57143C12.6786 9.28183 12.3964 9.96314 11.894 10.4655C11.3917 10.9678 10.7104 11.25 10 11.25C9.2896 11.25 8.60829 10.9678 8.10596 10.4655C7.60363 9.96314 7.32143 9.28183 7.32143 8.57143C7.32143 7.86103 7.60363 7.17973 8.10596 6.6774C8.60829 6.17507 9.2896 5.89286 10 5.89286ZM10 6.96429C9.57376 6.96429 9.16498 7.13361 8.86358 7.43501C8.56218 7.73641 8.39286 8.14519 8.39286 8.57143C8.39286 8.99767 8.56218 9.40646 8.86358 9.70785C9.16498 10.0093 9.57376 10.1786 10 10.1786C10.4262 10.1786 10.835 10.0093 11.1364 9.70785C11.4378 9.40646 11.6071 8.99767 11.6071 8.57143C11.6071 8.14519 11.4378 7.73641 11.1364 7.43501C10.835 7.13361 10.4262 6.96429 10 6.96429Z" fill="#616161"/>
</svg>
